HIERARCHY
ROOT Root
{
  OFFSET 0.0 0.0 0.0
  CHANNELS 6 Xposition Yposition Zposition Zrotation Yrotation Xrotation
  JOINT Hips
  {
    OFFSET 0.0 100.0 0.0
    CHANNELS 6 Xposition Yposition Zposition Zrotation Yrotation Xrotation
    JOINT Spine1
    {
      OFFSET 5.003913 -0.037094 -0.013727
      CHANNELS 3 Zrotation Yrotation Xrotation
      JOINT Spine2
      {
        OFFSET 7.125363 -1e-06 0.0
        CHANNELS 3 Zrotation Yrotation Xrotation
        JOINT Chest
        {
          OFFSET 7.594027 1e-06 0.0
          CHANNELS 3 Zrotation Yrotation Xrotation
          JOINT Neck1
          {
            OFFSET 26.313086 -0.460272 -0.181672
            CHANNELS 3 Zrotation Yrotation Xrotation
            JOINT Neck2
            {
              OFFSET 8.045911 0.0 0.0
              CHANNELS 3 Zrotation Yrotation Xrotation
              JOINT Head
              {
                OFFSET 6.432774 0.0 0.0
                CHANNELS 3 Zrotation Yrotation Xrotation
                JOINT HeadEnd
                {
                  OFFSET 16.169773 0.06451 0.00362
                  CHANNELS 3 Zrotation Yrotation Xrotation
                }
                JOINT Jaw
                {
                  OFFSET 0.108741 3.12938 0.002639
                  CHANNELS 3 Zrotation Yrotation Xrotation
                }
                JOINT LeftEye
                {
                  OFFSET 4.45173 8.166359 3.206392
                  CHANNELS 3 Zrotation Yrotation Xrotation
                }
                JOINT RightEye
                {
                  OFFSET 4.436895 8.135758 -3.222429
                  CHANNELS 3 Zrotation Yrotation Xrotation
                }
              }
            }
          }
          JOINT LeftShoulder
          {
            OFFSET 23.218927 5.195579 1.621656
            CHANNELS 3 Zrotation Yrotation Xrotation
            JOINT LeftArm
            {
              OFFSET 15.902118 2e-06 -2e-06
              CHANNELS 3 Zrotation Yrotation Xrotation
              JOINT LeftForeArm
              {
                OFFSET 28.739307 0.0 -1e-06
                CHANNELS 3 Zrotation Yrotation Xrotation
                JOINT LeftHand
                {
                  OFFSET 27.093981 -4e-06 0.0
                  CHANNELS 3 Zrotation Yrotation Xrotation
                  JOINT LeftHandThumb1
                  {
                    OFFSET 2.276781 3.380274 0.83384
                    CHANNELS 3 Zrotation Yrotation Xrotation
                    JOINT LeftHandThumb2
                    {
                      OFFSET 4.705309 -1e-06 -1e-06
                      CHANNELS 3 Zrotation Yrotation Xrotation
                      JOINT LeftHandThumb3
                      {
                        OFFSET 2.798515 0.0 3e-06
                        CHANNELS 3 Zrotation Yrotation Xrotation
                        JOINT LeftHandThumbEnd
                        {
                          OFFSET 3.180793 4e-06 -4e-06
                          CHANNELS 3 Zrotation Yrotation Xrotation
                        }
                      }
                    }
                  }
                  JOINT LeftHandIndex1
                  {
                    OFFSET 3.247786 2.352677 0.137192
                    CHANNELS 3 Zrotation Yrotation Xrotation
                    JOINT LeftHandIndex2
                    {
                      OFFSET 6.367095 1e-06 0.0
                      CHANNELS 3 Zrotation Yrotation Xrotation
                      JOINT LeftHandIndex3
                      {
                        OFFSET 3.662364 0.0 0.0
                        CHANNELS 3 Zrotation Yrotation Xrotation
                        JOINT LeftHandIndex4
                        {
                          OFFSET 2.329242 4e-06 -4e-06
                          CHANNELS 3 Zrotation Yrotation Xrotation
                          JOINT LeftHandIndexEnd
                          {
                            OFFSET 2.767823 1e-06 0.0
                            CHANNELS 3 Zrotation Yrotation Xrotation
                          }
                        }
                      }
                    }
                  }
                  JOINT LeftHandMiddle1
                  {
                    OFFSET 3.163612 0.945023 -0.406112
                    CHANNELS 3 Zrotation Yrotation Xrotation
                    JOINT LeftHandMiddle2
                    {
                      OFFSET 6.276789 3e-06 0.0
                      CHANNELS 3 Zrotation Yrotation Xrotation
                      JOINT LeftHandMiddle3
                      {
                        OFFSET 4.35652 -1e-06 4e-06
                        CHANNELS 3 Zrotation Yrotation Xrotation
                        JOINT LeftHandMiddle4
                        {
                          OFFSET 2.996877 0.0 8e-06
                          CHANNELS 3 Zrotation Yrotation Xrotation
                          JOINT LeftHandMiddleEnd
                          {
                            OFFSET 2.323256 3e-06 -4e-06
                            CHANNELS 3 Zrotation Yrotation Xrotation
                          }
                        }
                      }
                    }
                  }
                  JOINT LeftHandRing1
                  {
                    OFFSET 2.882606 -0.309162 0.107445
                    CHANNELS 3 Zrotation Yrotation Xrotation
                    JOINT LeftHandRing2
                    {
                      OFFSET 6.033198 0.0 4e-06
                      CHANNELS 3 Zrotation Yrotation Xrotation
                      JOINT LeftHandRing3
                      {
                        OFFSET 4.350578 3e-06 0.0
                        CHANNELS 3 Zrotation Yrotation Xrotation
                        JOINT LeftHandRing4
                        {
                          OFFSET 2.651321 2e-06 -7e-06
                          CHANNELS 3 Zrotation Yrotation Xrotation
                          JOINT LeftHandRingEnd
                          {
                            OFFSET 1.937663 1e-06 -4e-06
                            CHANNELS 3 Zrotation Yrotation Xrotation
                          }
                        }
                      }
                    }
                  }
                  JOINT LeftHandPinky1
                  {
                    OFFSET 2.865315 -1.525436 0.575687
                    CHANNELS 3 Zrotation Yrotation Xrotation
                    JOINT LeftHandPinky2
                    {
                      OFFSET 5.54936 1e-06 -8e-06
                      CHANNELS 3 Zrotation Yrotation Xrotation
                      JOINT LeftHandPinky3
                      {
                        OFFSET 3.070974 0.0 -4e-06
                        CHANNELS 3 Zrotation Yrotation Xrotation
                        JOINT LeftHandPinky4
                        {
                          OFFSET 1.549672 1e-06 0.0
                          CHANNELS 3 Zrotation Yrotation Xrotation
                          JOINT LeftHandPinkyEnd
                          {
                            OFFSET 1.952123 0.0 0.0
                            CHANNELS 3 Zrotation Yrotation Xrotation
                          }
                        }
                      }
                    }
                  }
                }
              }
            }
          }
          JOINT RightShoulder
          {
            OFFSET 23.161716 5.296122 -1.380114
            CHANNELS 3 Zrotation Yrotation Xrotation
            JOINT RightArm
            {
              OFFSET -16.027195 -2e-06 1.1e-05
              CHANNELS 3 Zrotation Yrotation Xrotation
              JOINT RightForeArm
              {
                OFFSET -28.736639 4e-06 2e-06
                CHANNELS 3 Zrotation Yrotation Xrotation
                JOINT RightHand
                {
                  OFFSET -27.133619 6e-06 0.0
                  CHANNELS 3 Zrotation Yrotation Xrotation
                  JOINT RightHandThumb1
                  {
                    OFFSET -2.274328 -3.351035 -0.83067
                    CHANNELS 3 Zrotation Yrotation Xrotation
                    JOINT RightHandThumb2
                    {
                      OFFSET -4.703594 -3e-06 2e-06
                      CHANNELS 3 Zrotation Yrotation Xrotation
                      JOINT RightHandThumb3
                      {
                        OFFSET -2.794935 -4e-06 -3e-06
                        CHANNELS 3 Zrotation Yrotation Xrotation
                        JOINT RightHandThumbEnd
                        {
                          OFFSET -3.183852 4e-06 1e-06
                          CHANNELS 3 Zrotation Yrotation Xrotation
                        }
                      }
                    }
                  }
                  JOINT RightHandIndex1
                  {
                    OFFSET -3.253496 -2.33755 -0.127667
                    CHANNELS 3 Zrotation Yrotation Xrotation
                    JOINT RightHandIndex2
                    {
                      OFFSET -6.344434 0.0 0.0
                      CHANNELS 3 Zrotation Yrotation Xrotation
                      JOINT RightHandIndex3
                      {
                        OFFSET -3.654871 0.0 -8e-06
                        CHANNELS 3 Zrotation Yrotation Xrotation
                        JOINT RightHandIndex4
                        {
                          OFFSET -2.327586 -1e-06 0.0
                          CHANNELS 3 Zrotation Yrotation Xrotation
                          JOINT RightHandIndexEnd
                          {
                            OFFSET -2.770001 3e-06 8e-06
                            CHANNELS 3 Zrotation Yrotation Xrotation
                          }
                        }
                      }
                    }
                  }
                  JOINT RightHandMiddle1
                  {
                    OFFSET -3.168223 -0.944764 0.411762
                    CHANNELS 3 Zrotation Yrotation Xrotation
                    JOINT RightHandMiddle2
                    {
                      OFFSET -6.266691 -1e-06 -4e-06
                      CHANNELS 3 Zrotation Yrotation Xrotation
                      JOINT RightHandMiddle3
                      {
                        OFFSET -4.348901 0.0 0.0
                        CHANNELS 3 Zrotation Yrotation Xrotation
                        JOINT RightHandMiddle4
                        {
                          OFFSET -3.00024 2e-06 -4e-06
                          CHANNELS 3 Zrotation Yrotation Xrotation
                          JOINT RightHandMiddleEnd
                          {
                            OFFSET -2.321477 -4e-06 -4e-06
                            CHANNELS 3 Zrotation Yrotation Xrotation
                          }
                        }
                      }
                    }
                  }
                  JOINT RightHandRing1
                  {
                    OFFSET -2.885654 0.293261 -0.119232
                    CHANNELS 3 Zrotation Yrotation Xrotation
                    JOINT RightHandRing2
                    {
                      OFFSET -6.032835 -1e-06 -4e-06
                      CHANNELS 3 Zrotation Yrotation Xrotation
                      JOINT RightHandRing3
                      {
                        OFFSET -4.33881 0.0 -4e-06
                        CHANNELS 3 Zrotation Yrotation Xrotation
                        JOINT RightHandRing4
                        {
                          OFFSET -2.654903 -4e-06 -4e-06
                          CHANNELS 3 Zrotation Yrotation Xrotation
                          JOINT RightHandRingEnd
                          {
                            OFFSET -1.935122 0.0 4e-06
                            CHANNELS 3 Zrotation Yrotation Xrotation
                          }
                        }
                      }
                    }
                  }
                  JOINT RightHandPinky1
                  {
                    OFFSET -2.866241 1.503904 -0.60527
                    CHANNELS 3 Zrotation Yrotation Xrotation
                    JOINT RightHandPinky2
                    {
                      OFFSET -5.553177 -2e-06 0.0
                      CHANNELS 3 Zrotation Yrotation Xrotation
                      JOINT RightHandPinky3
                      {
                        OFFSET -3.062664 -1e-06 -4e-06
                        CHANNELS 3 Zrotation Yrotation Xrotation
                        JOINT RightHandPinky4
                        {
                          OFFSET -1.546529 2e-06 4e-06
                          CHANNELS 3 Zrotation Yrotation Xrotation
                          JOINT RightHandPinkyEnd
                          {
                            OFFSET -1.952341 0.0 -4e-06
                            CHANNELS 3 Zrotation Yrotation Xrotation
                          }
                        }
                      }
                    }
                  }
                }
              }
            }
          }
        }
      }
    }
    JOINT LeftLeg
    {
      OFFSET -8.443107 2.567604 10.043214
      CHANNELS 3 Zrotation Yrotation Xrotation
      JOINT LeftShin
      {
        OFFSET 43.229198 1e-06 -1e-06
        CHANNELS 3 Zrotation Yrotation Xrotation
        JOINT LeftFoot
        {
          OFFSET 42.298611 1e-06 1e-06
          CHANNELS 3 Zrotation Yrotation Xrotation
          JOINT LeftToeBase
          {
            OFFSET 14.165858 1e-06 0.0
            CHANNELS 3 Zrotation Yrotation Xrotation
            JOINT LeftToeEnd
            {
              OFFSET 6.7141 -0.234461 0.0
              CHANNELS 3 Zrotation Yrotation Xrotation
            }
          }
        }
      }
    }
    JOINT RightLeg
    {
      OFFSET -8.303923 2.592729 -10.047278
      CHANNELS 3 Zrotation Yrotation Xrotation
      JOINT RightShin
      {
        OFFSET -43.369682 0.0 1e-06
        CHANNELS 3 Zrotation Yrotation Xrotation
        JOINT RightFoot
        {
          OFFSET -42.260784 4e-06 2e-06
          CHANNELS 3 Zrotation Yrotation Xrotation
          JOINT RightToeBase
          {
            OFFSET -14.222245 -2e-06 -1e-06
            CHANNELS 3 Zrotation Yrotation Xrotation
            JOINT RightToeEnd
            {
              OFFSET -6.660062 0.232574 -2e-06
              CHANNELS 3 Zrotation Yrotation Xrotation
            }
          }
        }
      }
    }
  }
}
MOTION
Frames: 4
Frame Time: 0.03333333333333333
0.0 0.0 0.0 0.0 -0.0 0.0 0.117808 99.532661 -0.259513 90.180275 5.680973 87.959068 -3.604592 -1.867935 0.353682 -12.423424 -1.178834 0.740196 23.635834 -1.063196 -1.809027 22.107662 12.964064 1.353444 -2.512921 -0.694162 -11.701923 -31.521179 1.226818 -18.112587 6e-06 -0.0 -0.0 0.002394 -0.027946 0.079255 -0.136511 -0.031858 0.074283 -0.141663 -0.021808 0.062049 -16.479525 -76.091499 27.916265 99.542206 -40.564075 -74.491142 59.565247 -0.128034 -1.213635 -17.20727 17.62941 -81.403976 17.636627 -26.322731 52.411198 -19.466656 -14.395597 29.410389 -0.0 -8.774821 -2e-06 13.913445 -17.840431 7.71546 -0.609776 -1.795653 -3.889328 -4.807091 -11.046809 -2.937849 3e-06 -20.976019 2e-06 -5.019973 -25.033556 -4.031882 6e-06 -2e-06 1e-06 -10.634533 -5.68697 -3.565588 10.573271 -17.922947 -3.113899 2e-06 -13.821209 2e-06 -0.501779 -31.181498 -4.027014 -12.3917 -59.468777 7.723626 -13.982716 -7.150197 -2.875041 13.772728 -8.401489 -3.218241 0.347731 -34.211544 0.771656 -0.963029 -17.733366 2.621019 1e-06 -1e-06 -0.0 -17.346416 -20.095215 -4.201783 21.757557 -1.638374 3.866427 1e-06 -6.338821 2e-06 -1.697591 -22.59174 -6.194007 -1e-06 -3e-06 -1e-06 -108.168816 -84.224266 -58.652222 80.551506 -25.761877 -103.269722 24.504864 -0.643991 0.103118 6.952465 0.297694 -65.797318 22.18211 -20.375889 49.933308 -16.701805 -16.743525 28.476519 -3e-06 -12.690597 -1e-06 14.21103 -16.577528 4.125424 -0.105918 -1.513855 -4.275879 -5.039039 -5.612869 -2.953555 4e-06 -11.020519 -2e-06 -6.111296 -15.895328 -3.840469 0.0 -2e-06 -0.0 -10.283365 -5.680286 -4.341836 11.028291 -11.302404 -2.372632 -1.384269 -14.238575 -6.320118 -0.625437 -26.924187 -3.827599 -4.854086 -48.074677 -1.972394 -13.708519 -7.363473 -3.720938 18.141146 -14.052736 -3.242671 5e-06 -18.787268 -2e-06 -0.429711 -8.45604 2.555502 -1e-06 2e-06 1e-06 -15.92353 -20.094479 -5.473582 30.419205 -7.190825 1.735926 3e-06 -8.162925 -1e-06 -1.8619 -22.861465 -6.167939 0.0 -4e-06 -2e-06 -175.5979 -2.128303 -13.953253 14.591617 -0.109753 0.232432 -81.982185 1.496506 -2.423875 -5.712884 1.479565 2.151766 -0.999998 0.0 0.0 3.354386 -3.556436 -15.373091 16.311226 0.02942 0.01808 -82.255547 -1.292447 -4.985589 -6.61648 0.534691 1.589849 -1.000002 -1e-06 0.0 
0.0 0.0 0.0 0.0 -0.0 0.0 0.097562 99.5243 -0.229977 90.061279 5.536432 87.079163 -3.637599 -1.873975 0.324989 -12.405796 -1.20328 0.509293 23.634375 -0.981088 -2.116389 22.329844 12.304691 1.349348 -2.533148 -0.639286 -11.555523 -31.559084 0.876362 -17.628584 6e-06 -0.0 -0.0 -0.006463 -0.020906 0.07834 -0.130715 -0.020125 0.072324 -0.141016 -0.019804 0.062671 -15.009937 -76.424278 26.592464 99.853073 -40.349312 -72.487785 58.134529 -0.108837 -0.825193 -15.19578 15.257089 -79.479485 17.636625 -26.322729 52.411179 -19.466661 -14.395598 29.410381 -2e-06 -8.774821 -0.0 14.065014 -18.037699 7.870979 -0.609776 -1.795653 -3.889327 -4.807088 -11.04681 -2.93785 3e-06 -20.976017 1e-06 -5.019967 -25.033552 -4.031882 4e-06 -1e-06 -1e-06 -10.634533 -5.686969 -3.565585 10.573275 -17.922951 -3.113901 2e-06 -13.821209 1e-06 -0.501779 -31.181501 -4.027013 -12.487365 -59.445522 7.940823 -13.982712 -7.150197 -2.875042 13.772729 -8.401491 -3.21824 0.347735 -34.211544 0.771654 -0.963029 -17.733368 2.62102 -0.0 -1e-06 1e-06 -17.346416 -20.095211 -4.201779 21.757557 -1.638374 3.866426 1e-06 -6.338825 2e-06 -1.697589 -22.591742 -6.194005 0.0 -4e-06 -4e-06 -108.252518 -84.840836 -58.287304 80.151596 -25.684141 -102.626518 24.719694 -0.772975 -0.062868 6.713984 0.716469 -65.594269 22.182112 -20.375898 49.933327 -16.701817 -16.74353 28.476534 -4e-06 -12.690599 1e-06 14.262847 -16.475042 4.042995 -0.105918 -1.513856 -4.275881 -5.039041 -5.612871 -2.953558 5e-06 -11.020523 -3e-06 -6.111296 -15.895334 -3.840472 -0.0 1e-06 -0.0 -10.283369 -5.680287 -4.341839 11.028295 -11.302404 -2.372633 -1.384269 -14.238577 -6.320122 -0.625436 -26.924187 -3.827601 -4.912324 -48.091846 -1.917943 -13.708524 -7.363475 -3.720941 18.141148 -14.052739 -3.242674 5e-06 -18.787266 -3e-06 -0.429712 -8.456041 2.555504 -0.0 1e-06 -0.0 -15.923532 -20.094482 -5.473587 30.41921 -7.190826 1.735924 4e-06 -8.162927 -1e-06 -1.861901 -22.861473 -6.167941 1e-06 -5e-06 -2e-06 -175.636963 -2.205686 -14.490109 14.656588 -0.098096 0.2166 -82.116081 1.281966 -2.589707 -5.709404 1.472181 2.144736 -0.999999 -1e-06 -0.0 2.972122 -3.477456 -14.670832 16.544645 0.033657 0.035813 -82.298737 -1.261251 -4.822145 -6.546621 0.533827 1.588749 -1.000001 0.0 0.0 
0.0 0.0 0.0 0.0 -0.0 0.0 0.120668 99.524979 -0.228647 89.965652 5.291518 86.173737 -3.648435 -1.941728 0.265099 -12.394729 -1.278341 0.193159 23.642853 -0.871434 -2.485771 22.305738 11.600108 1.40703 -2.564209 -0.585732 -11.397348 -31.612797 0.465956 -17.091722 6e-06 -0.0 3e-06 -0.026694 -0.011111 0.083301 -0.125899 -0.005411 0.073915 -0.152222 -0.014314 0.071376 -12.048549 -76.516388 23.785685 101.671539 -39.382874 -71.432281 54.946907 -0.186702 -0.391692 -14.309071 13.116684 -78.765106 17.63662 -26.322729 52.411182 -19.46666 -14.395594 29.410385 -2e-06 -8.77482 -1e-06 14.060533 -18.175192 8.135998 -0.609777 -1.795654 -3.889324 -4.807086 -11.046809 -2.937848 5e-06 -20.976017 1e-06 -5.019967 -25.033554 -4.031878 4e-06 -1e-06 -2e-06 -10.634529 -5.686969 -3.565586 10.573272 -17.922953 -3.113901 4e-06 -13.821208 2e-06 -0.501777 -31.181505 -4.027015 -12.395144 -59.425488 8.048558 -13.982711 -7.150194 -2.87504 13.772726 -8.401491 -3.21824 0.347736 -34.211555 0.771655 -0.963029 -17.73337 2.621021 -1e-06 -0.0 0.0 -17.346409 -20.095211 -4.20178 21.757551 -1.638375 3.866426 1e-06 -6.338822 1e-06 -1.697587 -22.591738 -6.194003 -1e-06 -3e-06 -4e-06 -109.358109 -85.425003 -56.808498 79.613762 -25.306967 -102.531395 24.469994 -0.63351 -0.104589 6.482193 1.428117 -65.446144 22.182114 -20.375898 49.933319 -16.701811 -16.74353 28.476528 -3e-06 -12.6906 -2e-06 14.350743 -16.430126 3.907144 -0.105919 -1.513856 -4.275881 -5.039042 -5.612873 -2.953556 4e-06 -11.020526 -0.0 -6.111298 -15.895334 -3.840471 0.0 -1e-06 -1e-06 -10.283371 -5.680288 -4.341838 11.028294 -11.302406 -2.372633 -1.384271 -14.238579 -6.32012 -0.625439 -26.924192 -3.827601 -4.939024 -48.143036 -1.933345 -13.708525 -7.363476 -3.720938 18.141148 -14.052739 -3.242674 7e-06 -18.78727 -1e-06 -0.429711 -8.456046 2.555504 -2e-06 1e-06 0.0 -15.923536 -20.094484 -5.473584 30.419218 -7.190827 1.735926 1e-06 -8.162928 -0.0 -1.861904 -22.861473 -6.167941 1e-06 -4e-06 -0.0 -175.796066 -2.225922 -15.017343 14.705877 -0.09325 0.198508 -82.220505 0.96067 -2.642932 -5.753035 1.465555 2.134921 -0.999999 -0.0 0.0 2.43305 -3.443294 -13.984135 16.799894 0.052878 0.04467 -82.313087 -1.120594 -4.574824 -6.501071 0.540798 1.584736 -1.000001 0.0 0.0 
0.0 0.0 0.0 0.0 -0.0 0.0 0.179058 99.54705 -0.255304 89.897682 4.980714 85.280457 -3.580653 -2.080093 0.159261 -12.382625 -1.430654 -0.203952 23.639311 -0.767791 -2.901761 22.137125 11.008126 1.518158 -2.59045 -0.583262 -11.22396 -31.747902 0.063124 -16.592472 6e-06 -0.0 1e-06 -0.044626 -0.001708 0.085647 -0.097415 0.006171 0.074417 -0.141299 -0.006139 0.075689 -7.442293 -76.292236 19.340925 104.98156 -37.406532 -71.007019 50.242271 -0.312595 -0.02695 -14.023417 11.251884 -79.423309 17.636633 -26.322733 52.411194 -19.466665 -14.3956 29.410389 1e-06 -8.774821 -2e-06 13.879164 -18.18729 8.38881 -0.609778 -1.795655 -3.889326 -4.807087 -11.046811 -2.937849 4e-06 -20.976019 1e-06 -5.019974 -25.033562 -4.031879 7e-06 -0.0 -0.0 -10.634536 -5.686972 -3.565586 10.573272 -17.922955 -3.1139 3e-06 -13.82121 2e-06 -0.501781 -31.181505 -4.027013 -12.198678 -59.362068 8.041043 -13.982717 -7.1502 -2.875043 13.772731 -8.401495 -3.21824 0.347734 -34.211555 0.771655 -0.963028 -17.733372 2.621021 1e-06 1e-06 0.0 -17.34642 -20.095221 -4.201782 21.757559 -1.638375 3.866429 1e-06 -6.338824 1e-06 -1.697587 -22.591743 -6.194005 -1e-06 -5e-06 -1e-06 -112.908623 -85.957703 -52.900349 79.146538 -24.684195 -103.421494 23.642452 -0.068988 -0.033873 6.148851 2.794361 -65.309761 22.182112 -20.3759 49.933334 -16.701815 -16.743528 28.476538 -2e-06 -12.690604 -1e-06 14.394243 -16.386482 3.775665 -0.105918 -1.513856 -4.275882 -5.039042 -5.612873 -2.953557 4e-06 -11.020525 -2e-06 -6.111297 -15.895332 -3.840472 1e-06 -1e-06 -2e-06 -10.283371 -5.680288 -4.341838 11.028294 -11.302407 -2.372635 -1.384267 -14.238583 -6.320122 -0.625436 -26.924194 -3.827603 -4.92706 -48.176361 -2.056112 -13.708527 -7.363477 -3.720939 18.141153 -14.052739 -3.242676 6e-06 -18.78727 -1e-06 -0.429711 -8.456042 2.555505 -0.0 -1e-06 1e-06 -15.923536 -20.094482 -5.473586 30.419222 -7.190827 1.735925 1e-06 -8.162927 -2e-06 -1.8619 -22.861473 -6.167942 1e-06 -3e-06 -1e-06 -175.968689 -2.185405 -15.614912 14.587276 -0.101838 0.190161 -82.216225 0.585798 -2.64767 -5.782412 1.454513 2.128867 -0.999998 -0.0 0.0 1.908394 -3.480855 -13.296005 16.932814 0.079027 0.021602 -82.23497 -0.876696 -4.313968 -6.409304 0.532984 1.577487 -1.000002 0.0 0.0 
